# AST/ASF file generated using VICON BodyLanguage
# -----------------------------------------------
:version 1.10
:name VICON
:units
  mass 1.0
  length 0.45
  angle deg
:documentation
   .ast/.asf automatically generated from VICON data using
   VICON BodyBuilder and BodyLanguage model FoxedUp or BRILLIANT.MOD
:root
   order TX TY TZ RX RY RZ
   axis XYZ
   position 0 0 0  
   orientation 0 0 0 
:bonedata
  begin
     id 1 
     name lhipjoint
     direction 0.693937 -0.600361 0.397515 
     length 2.37164 
     axis 0 0 0  XYZ
  end
  begin
     id 2 
     name lfemur
     direction 0.34202 -0.939693 0  
     length 6.18497  
     axis 0 0 20  XYZ
    dof rx ry rz
    limits (-160.0 20.0)
           (-70.0 70.0)
           (-60.0 70.0)
  end
  begin
     id 3 
     name ltibia
     direction 0.34202 -0.939693 0   
     length 6.91601   
     axis 0 0 20   XYZ
    dof rx
    limits (-10.0 170.0)
  end
  begin
     id 4 
     name lfoot
     direction 0.0978718 -0.2689 0.958182   
     length 1.81453   
     axis -90 7.62852e-016 20   XYZ
    dof rx rz
    limits (-45.0 90.0)
           (-70.0 20.0)
  end
  begin
     id 5 
     name ltoes
     direction 1.53569e-011 -4.21951e-011 1   
     length 0.912052   
     axis -90 7.62852e-016 20   XYZ
    dof rx
    limits (-90.0 20.0)
  end
  begin
     id 6 
     name rhipjoint
     direction -0.643996 -0.637876 0.422354   
     length 2.23216  
     axis 0 0 0  XYZ 
  end
  begin
     id 7 
     name rfemur
     direction -0.34202 -0.939693 0   
     length 6.15404   
     axis 0 0 -20   XYZ
    dof rx ry rz
    limits (-160.0 20.0)
           (-70.0 70.0)
           (-70.0 60.0)
  end
  begin
     id 8 
     name rtibia
     direction -0.34202 -0.939693 0   
     length 6.86744   
     axis 0 0 -20   XYZ
    dof rx
    limits (-10.0 170.0)
 end
 begin
     id 9 
     name rfoot
     direction -0.118701 -0.326127 0.937844   
     length 1.9243  
     axis -90 -7.62852e-016 -20   XYZ
    dof rx rz
    limits (-45.0 90.0)
           (-20.0 70.0)
  end
  begin
     id 10 
     name rtoes
     direction -1.5356e-011 -4.2181e-011 1   
     length 0.958865   
     axis -90 -7.62852e-016 -20   XYZ
    dof rx
    limits (-90.0 20.0)
  end
  begin
     id 11 
     name lowerback
     direction 0.0310826 0.968686 -0.246334   
     length 2.00021   
     axis 0 0 0   XYZ
    dof rx ry rz
    limits (-20.0 45.0)
           (-30.0 30.0)
           (-30.0 30.0)
  end
  begin
     id 12 
     name upperback
     direction -0.0152834 0.999474 -0.0286152   
     length 2.03728   
     axis 0 0 0   XYZ
    dof rx ry rz
    limits (-20.0 45.0)
           (-30.0 30.0)
           (-30.0 30.0)
  end
  begin
     id 13 
     name thorax
     direction -0.0323701 0.996236 0.0804149   
     length 2.16   
     axis 0 0 0   XYZ
    dof rx ry rz
    limits (-20.0 45.0)
           (-30.0 30.0)
           (-30.0 30.0)
  end
  begin
     id 14 
     name lowerneck
     direction 0.0307935 0.982251 0.185027   
     length 1.43558   
     axis 0 0 0   XYZ
    dof rx ry rz
    limits (-20.0 45.0)
           (-30.0 30.0)
           (-30.0 30.0)
  end
  begin
     id 15 
     name upperneck
     direction -0.0927153 0.994775 0.0427454   
     length 1.44603   
     axis 0 0 0   XYZ
    dof rx ry rz
    limits (-20.0 45.0)
           (-30.0 30.0)
           (-30.0 30.0)
  end
  begin
     id 16
     name head
     direction -0.0341265 0.999406 -0.00472033  
     length 1.45931  
     axis 0 0 0   XYZ
    dof rx ry rz
    limits (-20.0 45.0)
           (-30.0 30.0)
           (-30.0 30.0)
  end
  begin
     id 17 
     name lclavicle
     direction 0.820755 0.555306 -0.134151  
     length 2.66075  
     axis 0 0 0   XYZ
    dof ry rz
    limits (-20.0 10.0)
           (0.0 20.0)
  end
  begin
     id 18 
     name lhumerus
     direction 1 -4.48971e-011 5.24853e-027   
     length 5.0546   
     axis -180 -30 -90   XYZ
    dof rx ry rz
    limits (-60.0 90.0)
           (-90.0 90.0)
           (-90.0 90.0)
  end
  begin
     id 19
     name lradius
     direction 1 -4.48971e-011 2.76575e-028   
     length 3.39013   
     axis -180 -30 -90   XYZ
    dof rx
    limits (-10.0 170.0)
  end
  begin
     id 20
     name lwrist
     direction 1 -4.48939e-011 -2.27826e-027   
     length 1.69507   
     axis 2.17013e-015 90 90   XYZ
    dof ry
    limits (-180.0 0.0)
 end
  begin
     id 21 
     name lhand
     direction 1 -4.49009e-011 -4.55652e-027   
     length 0.572425   
     axis 2.90745e-015 90 90   XYZ
    dof rx rz
    limits (-90.0 90.0)
           (-45.0 45.0)
  end
  begin
     id 22 
     name lfingers
     direction 1 -4.48955e-011 -9.11303e-027   
     length 0.461504   
     axis 5.81489e-015 90 90   XYZ
    dof rx
    limits (0.0 90.0)
  end
  begin
     id 23
     name lthumb
     direction 0.707107 -6.34929e-011 0.707107   
     length 0.66263   
     axis -90 45 2.85299e-015   XYZ
    dof rx rz
    limits (-45.0 45.0)
           (-45.0 45.0)
  end
  begin
     id 24 
     name rclavicle
     direction -0.754477 0.632921 -0.173712   
     length 2.73081  
     axis 0 0 0   XYZ 
    dof ry rz
    limits (-10.0 20.0)
           (-20.0 0.0)
  end
  begin
     id 25 
     name rhumerus
     direction -1 -4.48969e-011 5.1496e-027  
     length 5.0701   
     axis -180 30 90   XYZ
    dof rx ry rz
    limits (-90.0 60.0)
           (-90.0 90.0)
           (-90.0 90.0)
  end
  begin
     id 26 
     name rradius
     direction -1 -4.48967e-011 -7.15624e-028   
     length 3.14957   
     axis -180 30 90   XYZ
    dof rx
    limits (-10.0 170.0)
  end
  begin
     id 27 
     name rwrist
     direction -1 -4.48938e-011 -2.27826e-027   
     length 1.57479   
     axis 2.17013e-015 -90 -90   XYZ
    dof ry
    limits (-180.0 0.0)
  end
  begin
     id 28
     name rhand
     direction -1 -4.49008e-011 -4.55652e-027   
     length 0.718191   
     axis 2.90745e-015 -90 -90   XYZ
    dof rx rz
    limits (-90.0 90.0)
           (-45.0 45.0)
  end
  begin
     id 29
     name rfingers
     direction -1 -4.48953e-011 -9.11303e-027   
     length 0.579024   
     axis 5.81489e-015 -90 -90   XYZ
    dof rx
    limits (0.0 90.0)
  end
  begin
     id 30
     name rthumb
     direction -0.707107 -6.34937e-011 0.707107   
     length 0.831366   
     axis -90 -45 -2.85299e-015   XYZ
    dof rx rz
    limits (-45.0 45.0)
           (-45.0 45.0)
  end
:hierarchy
  begin
    root lhipjoint rhipjoint lowerback
    lhipjoint lfemur
    lfemur ltibia
    ltibia lfoot
    lfoot ltoes
    rhipjoint rfemur
    rfemur rtibia
    rtibia rfoot
    rfoot rtoes
    lowerback upperback
    upperback thorax
    thorax lowerneck lclavicle rclavicle
    lowerneck upperneck
    upperneck head
    lclavicle lhumerus
    lhumerus lradius
    lradius lwrist
    lwrist lhand lthumb
    lhand lfingers
    rclavicle rhumerus
    rhumerus rradius
    rradius rwrist
    rwrist rhand rthumb
    rhand rfingers
  end

#!OML:ASF H:\Male1\Project 1\Capture day 1\Session 1\Male1.ASF
:FULLY-SPECIFIED
:DEGREES
202
root 14.6431 15.1156 1.3868 -191.789 -85.8071 188.955
lowerback 11.7838 1.23196 4.49995
upperback 3.84895 1.92117 -1.99222
thorax -2.34208 0.911365 -4.87893
lowerneck -46.2934 28.9507 -23.5677
upperneck 22.4614 69.2313 24.4891
head 327.675 74.3324 -265.505
rclavicle 1.90336e-014 -1.63003e-014
rhumerus -63.4873 24.6317 -89.9506
rradius 94.2989
rwrist -26.256
rhand -12.5141 1.37315
rfingers 7.12502
rthumb 13.5616 -28.1652
lclavicle 1.90336e-014 -1.63003e-014
lhumerus -53.9176 -15.2684 85.997
lradius 64.3434
lwrist 10.8525
lhand -15.9883 13.955
lfingers 7.12502
lthumb 10.2114 43.6872
rfemur -3.41024 11.3537 29.4609
rtibia 32.3827
rfoot -36.5315 -27.0702
rtoes -8.77176
lfemur -24.2743 -1.43665 -21.9165
ltibia 50.1438
lfoot -15.4182 5.69539
ltoes -17.2783
203
root 14.6866 15.1186 1.34783 -194.458 -86.4146 191.263
lowerback 12.1035 1.20786 5.06001
upperback 3.82632 1.95742 -2.24318
thorax -2.50331 0.925679 -5.48088
lowerneck -45.2444 28.9677 -22.6562
upperneck 22.8565 69.4783 24.1103
head 337.685 72.9797 -254.678
rclavicle -2.36554e-014 7.15625e-015
rhumerus -63.0935 24.4379 -90.8073
rradius 93.6061
rwrist -26.3536
rhand -12.7121 1.11069
rfingers 7.12502
rthumb 13.3707 -28.4403
lclavicle -2.36554e-014 7.15625e-015
lhumerus -53.971 -16.2661 85.6315
lradius 64.3651
lwrist 10.4891
lhand -14.303 14.9621
lfingers 7.12502
lthumb 11.8369 44.6076
rfemur -2.97235 11.3081 29.786
rtibia 31.9882
rfoot -36.4931 -27.6943
rtoes -8.83697
lfemur -24.9927 -0.877951 -21.6123
ltibia 51.2703
lfoot -14.5663 4.69492
ltoes -18.7652
204
root 14.7114 15.1316 1.31119 -192.14 -86.9266 188.829
lowerback 11.8452 1.276 5.37409
upperback 3.83075 2.05983 -2.63946
thorax -2.31432 0.986771 -6.08486
lowerneck -43.9821 28.9249 -21.7849
upperneck 22.9272 69.6665 23.4168
head 345.934 71.2703 -245.462
rclavicle 8.64713e-015 2.42517e-014
rhumerus -62.6353 24.2051 -91.6127
rradius 92.8353
rwrist -26.2304
rhand -12.7349 1.11025
rfingers 7.12502
rthumb 13.3488 -28.4422
lclavicle 8.64713e-015 2.42517e-014
lhumerus -53.9692 -17.134 85.0542
lradius 64.4348
lwrist 10.4413
lhand -15.9745 14.1351
lfingers 7.12502
lthumb 10.2248 43.8666
rfemur -2.78632 11.1378 29.6967
rtibia 31.6703
rfoot -36.4305 -28.1034
rtoes -8.89865
lfemur -25.6808 -0.238361 -21.6069
ltibia 52.1336
lfoot -13.9053 3.78843
ltoes -20.2355
205
root 14.732 15.136 1.27379 -196.531 -87.3274 192.96
lowerback 11.7143 1.2787 6.00289
upperback 3.88372 2.11598 -2.96045
thorax -2.13693 1.0266 -6.78949
lowerneck -42.6924 28.8935 -21.0071
upperneck 23.5344 69.7347 23.4665
head 351.751 69.0716 -239.265
rclavicle 8.44835e-015 2.38542e-014
rhumerus -62.1221 24.1265 -92.4064
rradius 91.9009
rwrist -26.0723
rhand -12.8306 1.36602
rfingers 7.12502
rthumb 13.2565 -28.1924
lclavicle 8.44835e-015 2.38542e-014
lhumerus -53.9933 -17.7814 84.3301
lradius 64.6987
lwrist 10.8393
lhand -15.6215 15.1002
lfingers 7.12502
lthumb 10.5653 44.8146
rfemur -2.44037 10.9187 30.0339
rtibia 31.4429
rfoot -36.6198 -28.372
rtoes -9.23911
lfemur -26.0818 0.397387 -21.1809
ltibia 52.7824
lfoot -13.303 2.89936
ltoes -21.8185
206
root 14.748 15.1357 1.23594 -200.024 -87.7085 196.136
lowerback 11.6024 1.27799 6.48046
upperback 3.94593 2.14755 -3.31118
thorax -1.96716 1.05463 -7.43981
lowerneck -41.222 28.9385 -20.2038
upperneck 24.302 69.8489 23.7272
head 356.093 66.9522 -234.587
rclavicle 4.37326e-015 1.11319e-014
rhumerus -61.5547 24.1733 -93.1301
rradius 90.748
rwrist -26.0231
rhand -12.8033 1.26703
rfingers 7.12502
rthumb 13.2828 -28.2897
lclavicle 4.37326e-015 1.11319e-014
lhumerus -53.9284 -18.4399 83.5661
lradius 64.968
lwrist 11.4973
lhand -14.977 16.2985
lfingers 7.12502
lthumb 11.1869 45.9803
rfemur -1.99308 10.809 30.3166
rtibia 31.224
rfoot -37.0467 -28.5248
rtoes -9.24098
lfemur -26.2726 0.848065 -20.8168
ltibia 53.1987
lfoot -12.7211 2.11786
ltoes -22.0805
207
root 14.7601 15.1368 1.19804 -198.365 -88.2462 194.262
lowerback 11.3428 1.27123 6.69386
upperback 3.96347 2.1315 -3.7631
thorax -1.77888 1.05911 -8.03896
lowerneck -39.552 29.0636 -19.2575
upperneck 24.6249 69.9992 23.5373
head 359.905 64.9957 -230.085
rclavicle 1.21259e-014 -7.15625e-015
rhumerus -61.0184 24.1583 -93.7905
rradius 89.4354
rwrist -26.0909
rhand -12.6826 1.36257
rfingers 7.12502
rthumb 13.3991 -28.1865
lclavicle 1.21259e-014 -7.15625e-015
lhumerus -53.8532 -19.0606 82.7313
lradius 65.011
lwrist 11.8644
lhand -14.7285 18.9349
lfingers 7.12502
lthumb 11.4266 48.6035
rfemur -1.64246 10.6457 30.2972
rtibia 31.007
rfoot -37.6375 -28.591
rtoes -9.1185
lfemur -26.4152 0.983618 -20.7121
ltibia 53.3845
lfoot -12.0297 1.46296
ltoes -22.186
208
root 14.773 15.1304 1.16028 -200.364 -88.7575 195.877
lowerback 11.2372 1.25169 6.96489
upperback 4.04888 2.10819 -4.19318
thorax -1.60231 1.0609 -8.65633
lowerneck -37.7191 29.0931 -18.3684
upperneck 24.2327 69.8358 22.7523
head 362.905 63.0471 -226.195
rclavicle 1.98785e-016 -1.03368e-014
rhumerus -60.4834 24.0125 -94.3492
rradius 88.0277
rwrist -26.2654
rhand -12.6308 2.05426
rfingers 7.12502
rthumb 13.4491 -27.4916
lclavicle 1.98785e-016 -1.03368e-014
lhumerus -53.7255 -19.5181 81.8282
lradius 64.847
lwrist 11.9666
lhand -15.0806 18.0422
lfingers 7.12502
lthumb 11.087 47.7293
rfemur -1.13132 10.4008 30.4268
rtibia 30.8602
rfoot -38.3733 -28.5462
rtoes -9.18416
lfemur -26.2538 0.943146 -20.4368
ltibia 53.3873
lfoot -11.4268 0.751039
ltoes -22.9901
209
root 14.7784 15.1279 1.12077 -188.776 -89.1311 184.155
lowerback 10.7634 1.30423 6.88225
upperback 4.14069 2.12454 -4.63455
thorax -1.22536 1.09085 -9.06953
lowerneck -36.0459 29.251 -17.4906
upperneck 24.1319 69.952 22.2643
head 365.346 61.5586 -222.856
rclavicle 4.55217e-014 -6.52014e-014
rhumerus -59.8014 23.9567 -94.7543
rradius 86.5285
rwrist -26.4405
rhand -12.3816 2.20907
rfingers 7.12502
rthumb 13.6892 -27.3207
lclavicle 4.55217e-014 -6.52014e-014
lhumerus -53.4251 -19.7335 80.9362
lradius 64.5942
lwrist 12.208
lhand -15.7237 17.6755
lfingers 7.12502
lthumb 10.4667 47.3949
rfemur -0.874781 10.3768 30.3547
rtibia 30.7602
rfoot -38.9692 -28.5639
rtoes -9.43433
lfemur -26.1724 0.817903 -20.3003
ltibia 53.2402
lfoot -11.1785 -0.0611041
ltoes -23.7995
210
root 14.7771 15.1212 1.078 -149.384 -89.273 144.479
lowerback 10.3773 1.3955 6.42518
upperback 4.30741 2.15624 -5.09229
thorax -0.830633 1.1247 -9.28512
lowerneck -34.2719 29.1748 -16.753
upperneck 22.7994 69.4972 20.6503
head 367.421 59.74 -219.523
rclavicle -3.4191e-014 6.91771e-014
rhumerus -58.946 23.8513 -94.9848
rradius 84.9175
rwrist -26.5337
rhand -11.9641 1.49305
rfingers 7.12502
rthumb 14.0916 -28.0092
lclavicle -3.4191e-014 6.91771e-014
lhumerus -52.9909 -19.9014 80.1018
lradius 64.3193
lwrist 12.7158
lhand -15.6171 17.3091
lfingers 7.12502
lthumb 10.5695 47.0234
rfemur -0.442784 10.483 30.1289
rtibia 30.6282
rfoot -39.2574 -28.9625
rtoes -10.3379
lfemur -25.7834 0.609692 -20.3602
ltibia 53.0449
lfoot -11.2139 -0.975611
ltoes -24.6807
211
root 14.7719 15.1099 1.03698 -112.145 -89.4448 106.949
lowerback 9.99358 1.47351 6.34338
upperback 4.45323 2.21782 -5.47246
thorax -0.437377 1.17822 -9.64157
lowerneck -32.2917 29.0438 -15.8708
upperneck 20.7433 68.5777 18.4651
head 369.145 57.781 -216.268
rclavicle 6.36111e-015 4.77083e-014
rhumerus -58.1515 23.2981 -95.1072
rradius 83.2874
rwrist -26.6074
rhand -11.73 0.604119
rfingers 7.12502
rthumb 14.3172 -28.8823
lclavicle 6.36111e-015 4.77083e-014
lhumerus -52.5523 -20.2553 79.334
lradius 64.1056
lwrist 13.2471
lhand -15.4374 17.6961
lfingers 7.12502
lthumb 10.7429 47.4014
rfemur -0.0244442 10.5309 30.2945
rtibia 30.4718
rfoot -39.5115 -29.5126
rtoes -11.0826
lfemur -25.367 0.179732 -20.0468
ltibia 52.8745
lfoot -11.2582 -1.82392
ltoes -26.1992
212
root 14.7618 15.1041 0.999237 -84.6704 -89.7967 79.4694
lowerback 9.38163 1.62152 6.80488
upperback 4.45207 2.42475 -5.8101
thorax -0.0128678 1.31634 -10.2806
lowerneck -30.1859 28.9974 -14.8561
upperneck 19.0644 67.6541 16.757
head 370.447 56.2273 -213.466
rclavicle 1.78906e-015 -2.54444e-014
rhumerus -57.556 22.4183 -95.3366
rradius 81.7241
rwrist -26.8139
rhand -11.892 -0.0938639
rfingers 7.12502
rthumb 14.1611 -29.5912
lclavicle 1.78906e-015 -2.54444e-014
lhumerus -52.1426 -20.7578 78.593
lradius 63.81
lwrist 13.6754
lhand -15.46 18.2263
lfingers 7.12502
lthumb 10.721 47.9328
rfemur 0.0684829 10.4272 30.8069
rtibia 30.3297
rfoot -39.5479 -29.5646
rtoes -11.0036
lfemur -25.1992 -0.130835 -19.2333
ltibia 52.6962
lfoot -11.3653 -2.57473
ltoes -28.4802
213
root 14.7607 15.0975 0.958358 -148.484 -90.3044 143.297
lowerback 8.89197 1.75256 7.21558
upperback 4.4299 2.60845 -6.08099
thorax 0.316998 1.43824 -10.8202
lowerneck -28.124 28.9728 -13.9006
upperneck 20.3926 67.3493 18.1235
head 370.981 55.7936 -212.202
rclavicle -2.127e-014 2.22639e-014
rhumerus -56.9749 21.5563 -95.5487
rradius 80.2175
rwrist -27.2554
rhand -12.5559 -0.524723
rfingers 7.12502
rthumb 13.5212 -30.0657
lclavicle -2.127e-014 2.22639e-014
lhumerus -51.5338 -21.1779 77.9425
lradius 63.212
lwrist 14.0055
lhand -15.7768 17.9599
lfingers 7.12502
lthumb 10.4155 47.6819
rfemur 0.0808209 10.3145 31.3803
rtibia 30.2456
rfoot -39.392 -29.4738
rtoes -10.5006
lfemur -25.0675 -0.643308 -18.3648
ltibia 52.4762
lfoot -11.6889 -3.70323
ltoes -30.1925
214
root 14.7578 15.0847 0.920015 -165.225 -90.474 159.869
lowerback 8.51094 1.90508 7.08389
upperback 4.50662 2.77556 -6.3344
thorax 0.657808 1.54271 -11.0164
lowerneck -25.9388 28.9218 -13.0281
upperneck 19.2002 66.538 16.9099
head 371.822 54.7151 -209.914
rclavicle -8.15017e-015 -1.59028e-014
rhumerus -56.3411 20.8381 -95.5898
rradius 78.7525
rwrist -27.7967
rhand -13.2967 -0.90837
rfingers 7.12502
rthumb 12.8072 -30.4955
lclavicle -8.15017e-015 -1.59028e-014
lhumerus -50.7531 -21.3914 77.4439
lradius 62.3391
lwrist 14.1987
lhand -15.991 17.4917
lfingers 7.12502
lthumb 10.2089 47.2239
rfemur 0.2774 10.2652 31.5589
rtibia 30.2697
rfoot -39.3199 -29.4312
rtoes -10.2161
lfemur -24.5873 -1.32125 -17.9836
ltibia 52.1262
lfoot -12.4026 -5.19664
ltoes -30.5231
215
root 14.7552 15.0706 0.885653 -183.385 -90.8097 177.94
lowerback 8.05761 2.0429 6.91365
upperback 4.52483 2.92019 -6.65033
thorax 0.974024 1.63271 -11.2554
lowerneck -23.5474 28.9071 -11.9703
upperneck 18.2452 65.5447 16.0616
head 372.345 53.6755 -208.09
rclavicle -4.79071e-014 3.81667e-014
rhumerus -55.8073 19.9061 -95.634
rradius 77.3464
rwrist -27.9354
rhand -14.1799 -1.43135
rfingers 7.12502
rthumb 11.9556 -31.0699
lclavicle -4.79071e-014 3.81667e-014
lhumerus -50.0672 -21.7879 77.0072
lradius 61.3552
lwrist 14.3061
lhand -16.0719 17.579
lfingers 7.12502
lthumb 10.1308 47.3151
rfemur 0.319361 10.0691 31.5433
rtibia 30.4405
rfoot -39.644 -29.229
rtoes -9.45511
lfemur -24.1182 -2.20961 -17.8185
ltibia 51.6466
lfoot -13.1896 -6.26791
ltoes -30.4058
216
root 14.7507 15.0571 0.858189 -186.586 -91.0956 181.009
lowerback 7.63687 2.03604 6.71878
upperback 4.69228 2.87628 -6.77576
thorax 1.37051 1.63235 -11.2529
lowerneck -18.8915 8.17418 -3.13839
upperneck 12.8039 -59.1264 -14.4329
head 493.149 -74.3687 -278.585
rclavicle 5.88403e-014 -1.90833e-014
rhumerus -55.024 19.552 -95.4548
rradius 76.0475
rwrist -27.651
rhand -15.4727 -1.85584
rfingers 7.12502
rthumb 10.7088 -31.5629
lclavicle 5.88403e-014 -1.90833e-014
lhumerus -49.2732 -21.445 76.6541
lradius 60.3839
lwrist 14.2946
lhand -16.1813 17.7826
lfingers 7.12502
lthumb 10.0253 47.5238
rfemur 0.352258 9.66046 31.5293
rtibia 30.6874
rfoot -39.925 -28.8146
rtoes -8.8341
lfemur -23.5531 -3.1689 -17.6394
ltibia 51.085
lfoot -13.8402 -6.78188
ltoes -30.6905
